<svg xmlns="http://www.w3.org/2000/svg" viewBox="0 0 2400 800" shape-rendering="crispEdges" width="100%" height="100%">
  <defs>
    <path id="cloud" d="M0,96 v-48 h48 v-48 h96 v48 h48 v48 Z" fill="#FFFFFF" stroke="#000000" stroke-width="4"/>

    <path id="hill-large" d="M0,240 v-48 h48 v-48 h48 v-48 h48 v-48 h48 v-48 h48 v48 h48 v48 h48 v48 h48 v48 h48 v48 Z" fill="#00A800" stroke="#000000" stroke-width="4"/>

    <path id="hill-small" d="M0,144 v-48 h48 v-48 h48 v-48 h48 v48 h48 v48 h48 v48 Z" fill="#00A800" stroke="#000000" stroke-width="4"/>

    <path id="bush" d="M0,96 v-48 h48 v-48 h48 v48 h48 v-48 h48 v48 h48 v48 Z" fill="#00A800" stroke="#000000" stroke-width="4"/>
  </defs>

  <rect width="2400" height="800" fill="#5C94FC" />

  <use href="#cloud" x="200" y="120" />
  <use href="#cloud" x="1200" y="180" />
  <use href="#cloud" x="1800" y="100" />
  <use href="#cloud" x="600" y="200" />
  <use href="#cloud" x="2100" y="150" />

  <use href="#hill-large" x="100" y="464" />
  <use href="#hill-large" x="800" y="464" />
  <use href="#hill-small" x="1600" y="560" />
  <use href="#hill-small" x="2000" y="560" />
  <use href="#bush" x="500" y="608" />
  <use href="#bush" x="1100" y="608" />
  <use href="#bush" x="1700" y="608" />

  <rect x="300" y="680" width="12" height="24" fill="#000000" />
  <rect x="700" y="680" width="12" height="24" fill="#000000" />
  <rect x="1300" y="680" width="12" height="24" fill="#000000" />
  <rect x="1900" y="680" width="12" height="24" fill="#000000" />

  <g stroke="#000000" stroke-width="4">
    <rect x="900" y="608" width="84" height="96" fill="#00A800" />
    <rect x="880" y="548" width="108" height="60" fill="#00A800" />
  </g>
  
  <g fill="#80D010">
    <rect x="908" y="558" width="20" height="40" />
    <rect x="920" y="618" width="20" height="86" />
  </g>

  <g>
    <rect x="0" y="704" width="2400" height="20" fill="#00A800" />
    <rect x="0" y="724" width="2400" height="8" fill="#008000" />
    <rect x="0" y="732" width="2400" height="68" fill="#C84C0C" />
    <rect x="0" y="704" width="2400" height="96" fill="none" stroke="#000000" stroke-width="4"/>
  </g>
</svg>
